<svg width="192" height="67" viewBox="0 0 192 67" fill="none" xmlns="http://www.w3.org/2000/svg">
<g clip-path="url(#clip0_214_17937)" filter="url(#filter0_d_214_17937)">
<path fill-rule="evenodd" clip-rule="evenodd" d="M8.33726 1.33711C37.1967 0.501416 66.8903 0 95.7498 0C124.442 0 154.47 0.501416 183.329 1.33711C184.163 1.50425 186.332 3.0085 186.665 4.01133C186.832 4.84703 186.999 5.84986 187.166 6.85269C187.166 7.01983 183.329 6.68555 179.826 8.02266C181.494 8.02266 187.333 8.1898 187.5 8.35694C188 12.7025 188.167 17.7167 188.167 22.898C188 22.898 184.33 22.7309 181.327 23.9008C182.328 23.9008 187.833 24.068 188.167 24.068C188.167 35.0991 187.333 46.7989 186.332 54.8215C185.831 55.6572 183.996 57.3286 183.162 57.6629C128.78 59.6686 54.2122 59.5014 9.33817 57.6629C8.33726 57.1615 6.50227 55.6572 6.16863 54.9887C5.50136 49.4731 4.83409 42.7875 4.50045 35.7677C4.50045 35.4334 5.66818 34.5977 8.83772 33.762C7.16954 33.4278 4.16682 33.762 4.16682 33.4278C4 30.085 4 26.9093 4 23.5666C4 23.2323 6.33545 23.0652 7.00272 23.0652C6.00181 22.898 4 22.0623 4 21.728C4 15.2096 4.50045 8.85836 5.16772 3.84419C5.66818 3.0085 7.33636 1.67139 8.33726 1.33711Z" fill="#683C11"/>
<path fill-rule="evenodd" clip-rule="evenodd" d="M5.16769 33.0935C8.17041 33.0935 11.0063 33.2606 13.8422 33.5949C13.1749 33.5949 12.6745 33.5949 12.0072 33.5949C9.67177 33.762 6.66905 34.4306 5.16769 35.2663C5.66814 41.6176 6.33541 47.4674 7.1695 52.4816C7.66996 53.1501 9.33813 54.6544 10.5059 54.9887C67.2239 56.1586 124.109 56.1586 180.994 54.9887C181.828 54.6544 183.83 53.3173 184.33 52.4816C185.665 44.6261 186.665 34.4306 186.999 24.2351C184.33 24.2351 181.828 24.2351 179.159 24.2351C179.659 24.068 180.16 23.9008 180.493 23.7337C183.162 22.898 184.664 22.5637 186.999 22.5637C187.166 17.7167 186.999 12.8697 186.665 8.35694C182.328 8.1898 178.325 8.1898 174.655 8.69122C178.992 7.35411 182.328 6.51841 186.499 6.51841C186.499 5.84986 186.332 5.01416 186.332 4.34561C185.831 3.34278 183.996 1.83853 183.162 1.67139C124.943 -3.27826e-07 66.7234 -3.27826e-07 8.50404 1.67139C7.50314 2.00567 5.83496 3.34278 5.50133 4.17847C4.83405 9.35977 4.66724 15.2096 4.66724 21.2266C6.50223 23.0652 12.8413 23.0652 16.8449 23.9008C13.0081 23.9008 9.0045 24.068 4.83405 24.4023C4.83405 27.2436 5.00087 30.2521 5.16769 33.0935Z" fill="#995B39"/>
<path d="M124.776 8.02266C123.608 8.35694 122.441 8.52408 121.44 8.52408C120.439 8.69122 119.438 8.69122 118.27 8.69122C117.269 8.69122 116.268 8.52408 115.101 8.35694C114.433 8.1898 113.766 8.02266 113.099 7.68839C112.432 7.35411 111.931 7.01983 111.431 6.68555C110.93 6.35128 110.263 5.84986 109.763 5.34844C109.262 4.84703 108.928 4.51275 108.595 4.01133C108.261 3.50992 107.928 3.0085 107.761 2.33994C107.427 1.83853 107.427 1.16997 107.427 0.668556V0.501417C107.928 0.501417 108.261 0.501417 108.762 0.501417C108.762 0.668556 108.762 0.668556 108.762 0.835695C108.762 1.67139 109.262 2.50708 109.596 3.17564C111.264 5.68272 114.1 6.68555 117.102 6.68555C120.105 6.85269 124.776 6.18414 126.945 4.34561C128.78 2.84136 128.78 1.67139 127.779 0.501417C129.28 0.501417 130.948 0.501417 132.45 0.501417C132.617 1.00283 132.617 1.67139 132.45 2.1728C132.283 2.84136 131.949 3.34278 131.616 3.84419C131.115 4.51275 130.615 5.01416 129.947 5.51558C129.28 6.017 128.613 6.35128 127.946 6.68555C126.945 7.35411 125.944 7.68839 124.776 8.02266ZM186.665 8.35694C186.499 8.35694 186.332 8.35694 186.165 8.35694C185.831 8.35694 185.665 8.35694 185.331 8.35694C184.997 8.35694 184.83 8.35694 184.497 8.35694C184.163 8.35694 183.996 8.35694 183.663 8.35694C183.329 8.35694 183.162 8.35694 182.995 8.35694C182.829 8.35694 182.495 8.35694 182.328 8.35694C182.161 8.35694 181.828 8.35694 181.661 8.35694C181.494 8.35694 181.161 8.35694 180.994 8.35694C180.827 8.35694 180.493 8.35694 180.326 8.35694C180.16 8.35694 179.826 8.35694 179.659 8.35694C179.492 8.35694 179.159 8.35694 178.992 8.35694C178.825 8.35694 178.491 8.35694 178.325 8.35694C178.158 8.35694 177.824 8.35694 177.657 8.35694C177.491 8.35694 177.157 8.35694 176.99 8.35694C176.823 8.35694 176.49 8.35694 176.323 8.35694C176.156 8.35694 175.822 8.35694 175.656 8.35694C164.812 9.52691 155.971 12.5354 144.127 14.8754C136.287 16.3796 128.947 18.051 121.106 18.051C110.763 17.8839 100.754 15.3768 91.5794 10.0283C88.243 8.02266 86.5748 6.18414 86.2412 4.34561C86.0744 3.0085 86.0744 1.83853 86.9085 0.501417C85.5739 0.501417 84.2394 0.501417 82.9048 0.501417C81.9039 2.00567 81.5703 3.50992 81.9039 4.84703C82.5712 9.19264 92.7471 13.7054 98.2521 15.5439C116.936 22.0623 126.111 20.7252 144.627 16.0453C160.141 12.2011 174.655 9.19264 186.832 10.6969C186.665 9.86119 186.665 9.19264 186.665 8.35694ZM186.999 16.881C169.15 16.2125 155.971 18.8867 143.293 20.7252C115.434 24.7365 106.259 25.238 78.2339 14.2068C73.0626 12.2011 68.8922 9.52691 66.5567 7.52125C64.5549 5.84986 64.3881 3.34278 66.2231 1.67139C66.5567 1.33711 67.0572 1.00283 67.5576 0.501417C66.2231 0.501417 64.8885 0.501417 63.3872 0.501417C63.2203 0.668556 63.0535 0.668556 63.0535 0.835695C62.5531 1.33711 62.0526 2.00567 61.719 2.67422C61.3853 3.34278 61.2185 4.01133 61.3854 4.84703C61.3854 5.51558 61.5522 6.18414 62.0526 6.85269C62.3863 7.52125 62.8867 8.1898 63.554 8.69122C66.0562 10.864 71.0608 13.3711 76.7326 15.5439C84.9067 18.7195 94.4153 21.5609 99.5866 22.898C110.096 25.5722 114.934 25.0708 125.61 24.068C131.782 23.5666 137.621 22.7309 143.46 21.728C156.138 19.8895 169.15 17.8839 186.999 18.7195C186.999 18.2181 186.999 17.5496 186.999 16.881ZM185.831 24.068C185.498 24.068 185.331 24.068 184.997 24.068C184.664 24.068 184.497 24.068 184.163 24.068C183.83 24.068 183.663 24.068 183.329 24.068C182.829 24.068 182.161 24.068 181.661 24.068C181.327 24.068 181.161 24.068 180.827 24.068C180.493 24.068 180.326 24.068 179.993 24.068C179.659 24.068 179.492 24.068 179.159 24.068C164.979 24.5694 150.966 26.9093 136.954 28.5807C128.112 29.5836 117.77 31.9235 109.095 30.5864C96.2503 28.5807 76.2321 19.7224 62.7199 15.2096C59.5504 14.2068 52.7108 12.034 47.039 9.35977C39.1986 5.68272 38.0309 3.17564 41.0336 0.835695C39.0318 0.835695 37.03 0.835695 34.8613 1.00283C33.8604 2.33994 34.1941 3.67705 35.0281 5.01416C38.3645 9.86119 54.7126 15.0425 60.8849 17.0482C66.7235 19.0538 72.5621 21.0595 78.4008 23.0652C87.5757 26.2408 99.0862 30.9207 108.928 31.7564C117.77 32.4249 128.279 30.9207 137.121 29.7507C153.636 27.745 169.817 25.7394 186.665 26.2408C186.665 25.5722 186.665 24.7365 186.665 24.068H185.831ZM186.665 29.0822C179.993 29.2493 173.153 29.5836 166.481 29.9178C145.128 31.0878 126.611 39.1105 103.924 35.4334C94.0816 33.762 86.7417 30.9207 76.0653 27.5779C63.0535 23.3994 49.8749 19.5552 36.5295 16.2125C28.0218 14.0397 16.1777 12.5354 8.67093 9.0255C6.83594 8.35694 5.83503 7.52125 5.16776 6.68555C5.16776 7.68839 5.00094 8.69122 5.00094 9.86119C5.33458 10.0283 5.66821 10.1955 6.16867 10.3626C14.1759 14.0397 26.3536 15.5439 35.5286 17.8839C49.3745 21.3938 63.0535 25.4051 76.5658 29.7507C87.7426 33.2606 95.7498 35.6006 103.757 36.7705C111.931 37.9405 120.105 37.7734 131.949 36.2691C143.46 34.7649 154.97 32.5921 166.481 31.9235C173.153 31.5892 179.826 31.4221 186.665 31.4221C186.665 30.5864 186.665 29.9178 186.665 29.0822ZM4.83412 25.7394C19.8477 24.9037 31.3582 25.5722 47.3727 30.7535C53.3781 32.5921 58.3826 34.0963 64.7217 34.932C81.0698 37.4391 93.0807 41.9518 110.597 42.4533C121.773 42.7875 134.285 40.7819 145.462 39.4448C158.64 37.7734 171.652 36.2691 186.165 36.102C186.165 35.4334 186.332 34.7649 186.332 34.0963C171.652 34.2635 158.473 35.9348 145.295 37.4391C134.118 38.7762 121.773 41.4504 110.597 41.1161C100.588 40.7819 91.0789 38.6091 81.5703 36.2691C75.8985 34.932 70.5603 33.5949 64.8885 32.7592C58.7163 31.7564 53.7117 30.4193 47.8731 28.5807C36.029 24.9037 26.6873 23.7337 16.6782 23.9009C16.3445 23.9009 16.1777 23.9009 15.8441 23.9009C15.6773 23.9009 15.3436 23.9009 15.1768 23.9009C14.8432 23.9009 14.6764 23.9009 14.3427 23.9009C14.0091 23.9009 13.8423 23.9009 13.5086 23.9009C13.175 23.9009 13.0082 23.9009 12.6746 23.9009C12.3409 23.9009 12.1741 23.9009 11.8405 23.9009C11.5068 23.9009 11.34 23.9009 11.0064 23.9009C10.6727 23.9009 10.5059 23.9009 10.1723 23.9009C9.83866 23.9009 9.67184 23.9009 9.3382 23.9009C9.00457 23.9009 8.83775 23.9009 8.50412 23.9009C8.17048 23.9009 8.00366 23.9009 7.67003 23.9009C7.33639 23.9009 7.16957 23.9009 6.83594 23.9009C6.5023 23.9009 6.33548 23.9009 6.00185 23.9009C5.66821 23.9009 5.50139 23.9009 5.16776 23.9009C5.00094 23.9009 4.83412 23.9009 4.50049 23.9009C4.83412 24.9037 4.83412 25.4051 4.83412 25.7394ZM5.83503 33.0935C6.16867 33.0935 6.5023 33.0935 6.83594 33.0935C7.16957 33.0935 7.50321 33.0935 7.67003 33.0935C8.00366 33.0935 8.3373 33.0935 8.50412 33.0935C8.83775 33.0935 9.17139 33.0935 9.3382 33.0935C9.67184 33.0935 10.0055 33.0935 10.1723 33.0935C10.5059 33.0935 10.8396 33.0935 11.0064 33.0935C11.34 33.0935 11.6737 33.0935 11.8405 33.0935C12.1741 33.0935 12.5077 33.0935 12.6746 33.2606C12.8414 33.2606 13.175 33.2606 13.3418 33.2606C24.185 34.4306 34.5277 37.6062 47.5395 39.4448C64.8885 41.7847 83.7389 44.4589 99.9203 45.796C110.43 46.6317 121.607 45.4618 132.116 44.2918C136.453 43.7904 140.791 43.289 145.128 42.6204C158.306 40.949 170.985 39.2776 185.331 39.2776C185.331 38.6091 185.498 37.9405 185.498 37.272C170.985 37.272 158.14 38.9433 144.794 40.6147C131.115 42.2861 113.266 45.4618 99.9203 44.2918C83.7389 43.1218 64.8885 39.2776 47.7063 36.9377C34.3609 35.0992 19.0136 31.7564 4.50049 31.4221C4.50049 31.7564 4.50049 32.2578 4.50049 32.5921C5.33458 33.0935 5.66821 33.0935 5.83503 33.0935ZM6.00185 41.7847C9.00457 41.6176 12.0073 41.6176 15.1768 41.6176C29.0227 42.2861 44.0363 45.4618 57.8822 45.9632C63.3872 46.1303 69.059 46.4646 74.5639 47.1331C78.4008 47.6346 81.7371 47.9688 84.9067 48.3031C94.0816 49.4731 101.088 50.3088 109.929 50.1416C119.438 49.8074 128.78 48.8045 138.122 47.6346C153.802 45.796 169.65 43.7904 185.498 43.289C185.498 42.6204 185.665 41.7847 185.665 41.1161C169.65 41.6176 152.968 44.1246 137.788 46.2975C128.446 47.6346 119.104 48.8045 109.763 48.9717C92.2466 49.4731 77.7335 44.2918 57.8822 44.1246C49.7081 43.9575 39.1986 42.119 32.0254 41.7847C29.3563 41.6176 26.6873 41.2833 24.0182 40.949C17.3455 40.2805 11.34 39.9462 5.66821 40.1133C5.83503 40.7819 5.83503 41.2833 6.00185 41.7847ZM6.83594 48.8045C14.0091 48.6374 19.6809 49.306 27.3545 49.6402C33.5268 49.8074 39.699 49.6402 45.8713 49.6402C58.5494 49.4731 69.059 50.1416 81.5703 51.6459C89.9112 52.6487 98.4189 53.6516 106.76 53.6516C119.938 53.8187 134.118 51.9802 147.13 50.8102C159.641 49.6402 171.652 48.3031 184.83 47.8017C184.997 46.966 184.997 46.1303 185.164 45.2946C159.141 46.6317 130.114 52.3144 106.76 52.1473C98.4189 51.9802 89.9112 51.3116 81.7371 50.4759C69.059 48.9717 58.7163 47.4674 45.8713 47.6346C39.699 47.8017 33.5268 47.8017 27.3545 47.6346C19.6809 47.6346 13.5086 47.3003 6.5023 47.4674C6.66912 47.8017 6.66912 48.3031 6.83594 48.8045ZM17.8459 55.1558C35.3618 53.9858 53.3781 53.4844 73.3962 55.8244C77.233 55.8244 81.0698 55.8244 84.9067 55.8244C75.7317 54.8215 66.7235 53.4844 57.5485 52.8159C41.3672 51.6459 25.0191 52.4816 8.50412 53.6516C9.17139 54.153 10.0055 54.8215 10.6727 54.9887C13.0082 54.9887 15.5105 54.9887 17.8459 55.1558ZM160.141 55.3229C167.815 54.6544 175.322 53.9858 182.995 53.6516C183.496 53.1501 183.996 52.8159 184.163 52.4816C184.33 51.9802 184.33 51.4788 184.497 50.9773C175.322 50.9773 165.98 51.9802 156.138 53.3173C149.799 54.153 143.126 54.9887 136.453 55.8244C144.461 55.6572 152.301 55.4901 160.141 55.3229ZM163.811 4.51275C165.646 3.84419 166.814 3.0085 167.481 2.1728C167.648 1.83853 167.815 1.50425 167.982 1.16997C165.646 1.16997 163.311 1.00283 160.976 1.00283C161.643 1.67139 161.643 2.50708 159.474 3.34278C157.806 4.01133 154.636 4.84703 150.466 5.68272C143.293 7.35411 135.953 10.1955 128.78 11.5326C125.944 12.034 123.108 12.5354 120.439 12.5354C117.77 12.7026 115.101 12.5354 112.598 11.8669C109.762 11.1983 106.426 9.35977 103.924 7.68839C100.421 5.34844 98.0853 3.17564 98.9193 0.334278C98.0853 0.334278 97.418 0.334278 96.5839 0.334278C96.4171 1.00283 96.4171 1.83853 96.5839 2.50708C96.5839 2.67422 96.7507 3.0085 96.7507 3.17564C97.5848 5.01416 99.9203 7.18697 102.756 8.85836C105.759 10.6969 109.095 12.2011 112.432 12.8697C115.267 13.5382 118.103 13.7054 121.273 13.5382C124.276 13.3711 127.445 13.0368 130.448 12.3683C134.452 11.6997 138.622 10.6969 142.459 9.69405H142.626C146.796 8.69122 150.633 7.85552 153.969 7.01983C158.473 6.017 161.81 5.34844 163.811 4.51275Z" fill="#B7805C"/>
<path fill-rule="evenodd" clip-rule="evenodd" d="M61.0517 17.0482C55.0462 15.0425 38.6981 9.86119 35.3617 5.01416C34.5276 3.67705 34.194 2.33994 35.1949 1.00283C26.3536 1.16997 17.3454 1.33711 8.50408 1.67139C7.50317 2.00567 5.835 3.34278 5.50136 4.17847C5.33454 5.01416 5.16772 5.84986 5.16772 6.68555C5.835 7.52125 6.8359 8.1898 8.6709 9.0255C16.1777 12.3683 28.0218 13.8725 36.6963 16.2125C50.0417 19.7224 63.2203 23.5666 76.2321 27.5779C86.9084 30.9207 94.2484 33.762 104.091 35.4334C126.778 39.2776 145.295 31.0878 166.647 29.9178C173.487 29.5836 180.16 29.0822 186.832 29.0822C186.832 28.0793 186.999 27.2436 186.999 26.2408C170.15 25.7394 153.969 27.745 137.454 29.7507C128.613 30.7535 118.103 32.4249 109.262 31.7564C99.4198 30.9207 88.0761 26.2408 78.7344 23.0652C72.7289 21.2266 67.0571 19.0538 61.0517 17.0482Z" fill="#995B39"/>
<path fill-rule="evenodd" clip-rule="evenodd" d="M109.429 3.17564C111.264 5.68272 114.1 6.68555 117.103 6.68555C120.105 6.85269 124.776 6.18414 126.945 4.34561C128.78 2.84136 128.78 1.67139 127.779 0.501417C121.273 0.501417 114.934 0.334278 108.428 0.334278C108.428 0.501417 108.428 0.501417 108.428 0.668556C108.595 1.67139 109.095 2.50708 109.429 3.17564Z" fill="#995B39"/>
<path fill-rule="evenodd" clip-rule="evenodd" d="M109.762 5.51558C109.262 5.01416 108.928 4.67989 108.595 4.17847C108.261 3.67705 107.927 3.17564 107.761 2.50708C107.427 1.83853 107.427 1.16997 107.427 0.668556V0.501417C104.591 0.501417 101.922 0.501417 99.0861 0.501417C98.252 3.50992 100.754 5.68272 104.091 7.85552C106.593 9.52691 109.762 11.3654 112.765 12.034C115.267 12.7025 117.77 12.8697 120.606 12.7025C123.275 12.5354 126.111 12.2011 128.946 11.6997C136.12 10.3626 143.46 7.52125 150.633 5.84986C154.636 4.84703 157.806 4.17847 159.641 3.50992C161.81 2.67422 161.81 1.83853 160.975 1.33711C151.634 1.16997 142.292 1.00283 132.95 0.835695C133.117 1.33711 133.117 2.00567 132.95 2.50708C132.783 3.17564 132.45 3.67705 132.116 4.17847C131.616 4.84703 131.115 5.34844 130.448 5.84986C129.781 6.35128 129.113 6.68555 128.446 7.01983C127.445 7.52125 126.277 7.85553 125.11 8.02266C123.942 8.35694 122.774 8.52408 121.773 8.52408C120.772 8.69122 119.771 8.69122 118.604 8.69122C117.603 8.69122 116.602 8.52408 115.434 8.35694C114.767 8.1898 114.1 8.02266 113.432 7.68839C112.765 7.35411 112.265 7.01983 111.764 6.68555C110.93 6.35128 110.263 5.84986 109.762 5.51558Z" fill="#995B39"/>
<path fill-rule="evenodd" clip-rule="evenodd" d="M48.0399 39.779C35.0281 37.9405 24.6854 34.7649 13.8422 33.5949C13.175 33.5949 12.6745 33.5949 12.0073 33.5949C9.6718 33.762 6.66908 34.4306 5.16772 35.2663C5.33454 36.9377 5.50136 38.6091 5.66818 40.1133C11.1732 39.9462 17.1786 40.1133 24.1849 41.1161C26.854 41.4504 29.5231 41.7847 32.1922 41.9518C39.3654 42.2861 49.7081 44.2918 58.049 44.2918C77.9003 44.4589 92.5802 49.6402 109.929 49.1388C119.271 48.8045 128.613 47.6346 137.955 46.4646C153.135 44.2918 169.65 41.7847 185.831 41.2833C185.831 40.7819 185.998 40.2805 185.998 39.6119C171.652 39.6119 158.807 41.2833 145.795 42.9547C141.458 43.4561 137.121 44.1246 132.783 44.6261C122.274 45.796 111.097 46.966 100.587 46.1303C84.2393 44.9603 65.3889 42.2861 48.0399 39.779Z" fill="#995B39"/>
<path fill-rule="evenodd" clip-rule="evenodd" d="M4.66724 21.2266C6.50223 23.0652 12.8413 23.0652 16.8449 23.9009C22.1831 23.9009 27.3545 24.2351 32.8594 25.0708C30.3572 24.5694 27.8549 24.068 24.6854 23.7337C18.1795 23.0652 13.5086 23.0652 7.50314 20.5581C7.00268 20.3909 6.33541 20.0567 6.00178 19.5552C4.83405 17.8839 6.1686 12.2011 9.50495 12.2011C10.339 12.2011 11.0063 12.3683 11.8404 12.5354C9.83859 11.8669 7.83677 11.1983 6.1686 10.3626C5.66814 10.1955 5.33451 10.0283 5.00087 9.86119C4.66724 13.3711 4.66724 17.2153 4.66724 21.2266ZM5.16769 31.9235C13.1749 32.0907 21.5158 33.2606 29.5231 34.4306C22.8504 32.7592 14.009 31.9235 9.17132 30.9207C6.1686 30.2521 6.50223 27.0765 8.17041 26.5751C12.0072 25.4051 19.514 25.7394 25.3526 26.0737C18.6799 25.4051 12.174 25.4051 4.83405 25.9065C4.83405 27.9122 5.00087 29.9178 5.16769 31.9235ZM5.66814 40.1133C11.1731 39.9462 17.1786 40.1133 24.1849 41.1161C26.854 41.4504 29.5231 41.7847 32.1922 41.9518C33.0263 41.9518 33.8603 42.119 34.6944 42.119C28.5222 41.2833 22.3499 40.6147 16.0108 39.779C14.1758 39.6119 11.1731 39.4448 9.50495 38.9433C8.17041 38.6091 8.00359 36.4363 8.50404 36.102C11.3399 34.5977 18.8467 34.932 21.8495 35.0991C24.0181 35.2663 26.1867 35.6006 28.3554 35.9348C23.5176 34.932 18.8467 33.9292 14.009 33.4278C13.3418 33.4278 12.8413 33.4278 12.174 33.4278C9.83859 33.5949 6.83587 34.2635 5.33451 35.0991C5.50133 36.9377 5.66814 38.6091 5.66814 40.1133ZM6.50223 47.4674C11.8404 47.3003 16.5113 47.4674 21.8495 47.4674C16.6781 47.1331 10.8395 46.6317 10.0054 46.1303C9.33813 45.6289 10.339 43.4561 11.5068 42.9547C13.6754 42.119 16.8449 42.119 19.8477 42.119C18.1795 41.9518 16.6781 41.7847 15.1768 41.7847C12.0072 41.6176 8.83768 41.7847 6.00178 41.9518C6.1686 43.7904 6.33541 45.6289 6.50223 47.4674ZM22.1831 49.4731C16.8449 49.1388 12.174 48.8045 6.83587 48.8045C7.00269 50.1416 7.1695 51.3116 7.33632 52.4816C7.50314 52.8159 8.00359 53.1501 8.50404 53.6516C12.6745 53.3173 16.8449 53.1501 21.1822 52.8159C17.5122 52.8159 13.6754 52.8159 12.0072 52.8159C11.6736 52.8159 10.1722 52.3144 9.83859 51.9802C9.50495 51.6459 9.50495 50.4759 10.0054 50.1416C10.5059 49.4731 16.5113 49.306 22.1831 49.4731ZM33.6935 15.5439C26.3535 13.7054 16.5113 11.3654 12.6745 9.35977C10.339 8.02266 10.8395 4.01133 12.6745 3.34278C16.3445 2.1728 24.6854 1.50425 30.524 1.16997C23.184 1.33711 15.844 1.50425 8.50404 1.67139C7.50314 2.00567 5.83496 3.34278 5.50133 4.17847C5.33451 5.01416 5.16769 5.84986 5.16769 6.68555C5.83496 7.52125 6.83587 8.1898 8.67086 9.0255C15.3436 12.2011 25.5195 13.7054 33.6935 15.5439Z" fill="#683C11"/>
<path fill-rule="evenodd" clip-rule="evenodd" d="M67.5576 32.2578C64.7217 31.5892 61.719 31.4221 58.8831 30.9207C57.0481 30.5864 55.2131 30.085 53.3781 29.5836C50.2085 28.7479 47.2058 27.5779 44.0363 26.7422C41.7008 26.2408 39.1986 25.9065 36.6963 25.5722C40.1995 26.2408 43.8695 27.2436 47.8731 28.5807C53.8785 30.4193 58.7162 31.7564 64.8885 32.7592C70.5603 33.5949 76.0653 34.932 81.5703 36.2691C87.0753 37.6062 92.4134 38.9433 97.9184 39.779C97.7516 39.779 97.7516 39.779 97.5848 39.779C96.0834 39.4448 94.4152 39.1105 92.9139 38.7762C90.5784 38.2748 88.243 37.7734 85.9075 37.1048C82.738 36.2691 79.7353 35.0992 76.5657 34.2635C75.0644 33.9292 73.3962 33.9292 71.728 33.5949C70.3935 33.2606 69.0589 32.5921 67.5576 32.2578Z" fill="#CA9E67"/>
<path fill-rule="evenodd" clip-rule="evenodd" d="M90.7452 24.2351C82.4043 21.2266 74.8975 18.8867 66.5566 16.5467C79.7352 21.2266 97.5847 28.915 109.262 30.7535C117.937 32.0907 128.279 29.9178 137.121 28.7479C141.458 28.2465 145.962 27.5779 150.299 27.0765C144.794 27.4108 138.789 27.5779 133.617 28.2465C130.615 28.5807 127.779 29.5836 124.776 30.085C121.94 30.5864 119.104 30.7535 116.102 30.9207C114.1 30.9207 112.098 30.9207 110.096 30.4193C107.594 29.9178 105.425 28.7479 102.923 28.2465C100.921 27.745 98.7525 27.5779 96.7507 26.9093C94.7488 26.0737 92.747 25.0708 90.7452 24.2351Z" fill="#CA9E67"/>
<path fill-rule="evenodd" clip-rule="evenodd" d="M44.8704 36.4363C41.2004 35.9348 37.5304 35.6006 33.6936 35.0992C38.6981 35.9348 43.5359 36.7705 48.2068 37.4391C65.389 39.779 84.2394 43.6232 100.421 44.7932C107.594 45.2946 115.935 44.7932 124.442 43.7904C123.608 43.7904 122.774 43.9575 121.94 43.9575C119.605 44.1246 117.102 44.2918 114.767 44.4589C112.598 44.6261 110.597 44.6261 108.428 44.6261C103.257 44.6261 100.421 44.1246 95.4162 43.4561C91.7462 42.9547 88.0762 42.119 84.4062 41.6176C82.5712 41.4504 80.7362 41.4504 78.9012 41.1161C77.3999 40.949 76.0653 40.4476 74.7308 40.1133C71.7281 39.6119 68.7253 39.4448 65.7226 38.9433C62.8867 38.4419 59.884 38.2748 57.0481 37.7734C53.0445 37.272 48.874 36.9377 44.8704 36.4363Z" fill="#CA9E67"/>
<path fill-rule="evenodd" clip-rule="evenodd" d="M147.964 19.7224C145.628 20.2238 143.293 20.7252 140.957 21.2266C141.625 21.0595 142.459 21.0595 143.126 20.8924C155.804 19.0538 168.983 16.3796 186.832 16.881C186.832 16.7139 186.832 16.5467 186.832 16.5467C182.328 15.711 179.492 15.5439 174.321 16.0453C173.487 16.0453 172.486 16.2125 171.652 16.2125C170.151 16.2125 168.816 15.5439 167.315 15.711C163.144 15.8782 152.968 18.7195 147.964 19.7224Z" fill="#CA9E67"/>
<path fill-rule="evenodd" clip-rule="evenodd" d="M37.3635 18.8867C38.5312 19.3881 40.5331 20.5581 40.8667 20.5581C42.3681 21.0595 46.3717 21.5609 49.0408 22.2295C53.0444 23.2323 57.048 24.4023 61.0516 25.4051C64.5548 26.4079 67.8912 27.4108 71.3943 28.2465C75.0643 29.2493 78.5675 30.4193 82.2375 31.255C82.4043 31.255 82.738 31.4221 82.9048 31.4221C80.903 30.7535 78.9011 30.2521 76.7325 29.4164C63.2203 25.238 49.5412 21.0595 35.6953 17.5496C30.524 16.2125 24.3517 15.2096 18.6799 13.8725C20.6817 14.5411 22.5167 15.0425 24.5186 15.5439C27.8549 16.3796 31.3581 17.0482 34.6944 17.7167C35.5285 18.2181 36.5294 18.5524 37.3635 18.8867Z" fill="#683C11"/>
<path fill-rule="evenodd" clip-rule="evenodd" d="M104.257 46.2975C112.265 46.6317 118.604 46.6317 126.111 46.1303C128.446 45.9632 130.615 45.6289 133.451 45.6289C136.954 45.4618 140.624 44.9603 144.127 44.2918C146.963 43.7904 149.632 42.9547 152.301 42.4533C154.636 41.9518 157.139 41.6176 159.641 41.2833C160.141 41.2833 160.475 41.1161 160.975 41.1161C155.804 41.7847 150.8 42.4533 145.628 42.9547C141.291 43.4561 136.954 44.1246 132.616 44.6261C123.441 45.6289 113.766 46.6317 104.257 46.2975Z" fill="#683C11"/>
<path fill-rule="evenodd" clip-rule="evenodd" d="M99.2529 6.18414C101.922 9.0255 105.592 11.5326 111.264 13.204C115.935 14.7082 119.104 15.2096 124.109 14.5411C127.111 14.2068 130.114 13.5382 132.95 12.7025C136.12 11.8669 139.122 10.864 142.125 10.0283C143.626 9.52691 145.295 9.19263 146.796 8.69122C145.461 9.0255 144.127 9.35977 142.792 9.69405H142.626C138.789 10.6969 134.618 11.6997 130.615 12.3683C127.445 12.8697 124.442 13.3711 121.44 13.5382C118.437 13.7054 115.434 13.5382 112.598 12.8697C109.262 12.2011 105.926 10.6969 103.09 8.85836C101.588 8.02266 100.254 7.18697 99.2529 6.18414Z" fill="#4C2706"/>
<path fill-rule="evenodd" clip-rule="evenodd" d="M6.00183 49.8074C6.00183 51.3116 6.16865 52.6487 6.33547 54.153C7.00274 55.1558 8.00364 56.1586 9.33819 56.8272C28.3554 57.4958 73.0626 59.1671 99.253 57.1615C69.5594 56.6601 39.8658 56.1586 10.3391 55.4901C9.00455 54.9887 8.00364 54.153 7.16956 53.1501C6.6691 51.9802 6.33547 50.9773 6.00183 49.8074Z" fill="#4C2706"/>
<path fill-rule="evenodd" clip-rule="evenodd" d="M7.66997 2.67422C18.6799 2.33994 29.1895 2.1728 40.1994 2.00567C42.3681 2.50708 45.7044 3.17564 46.7053 3.17564C49.2076 3.17564 57.8821 2.1728 62.3862 1.67139C102.923 1.16997 143.293 1.67139 183.83 2.67422C184.33 2.84136 185.331 3.34278 185.998 4.01133C185.498 3.17564 183.83 1.83853 182.995 1.67139C124.943 -3.57628e-07 66.7235 -3.57628e-07 8.50406 1.67139C7.50316 2.00567 5.83498 3.34278 5.50134 4.17847C6.16861 3.50991 7.0027 3.0085 7.66997 2.67422Z" fill="#CC9456"/>
</g>
<defs>
<filter id="filter0_d_214_17937" x="0" y="0" width="192" height="67" filterUnits="userSpaceOnUse" color-interpolation-filters="sRGB">
<feFlood flood-opacity="0" result="BackgroundImageFix"/>
<feColorMatrix in="SourceAlpha" type="matrix" values="0 0 0 0 0 0 0 0 0 0 0 0 0 0 0 0 0 0 127 0" result="hardAlpha"/>
<feOffset dy="4"/>
<feGaussianBlur stdDeviation="2"/>
<feComposite in2="hardAlpha" operator="out"/>
<feColorMatrix type="matrix" values="0 0 0 0 0 0 0 0 0 0 0 0 0 0 0 0 0 0 0.25 0"/>
<feBlend mode="normal" in2="BackgroundImageFix" result="effect1_dropShadow_214_17937"/>
<feBlend mode="normal" in="SourceGraphic" in2="effect1_dropShadow_214_17937" result="shape"/>
</filter>
<clipPath id="clip0_214_17937">
<rect width="184" height="59" fill="white" transform="translate(4)"/>
</clipPath>
</defs>
</svg>
