<svg width="107" height="28" viewBox="0 0 107 28" fill="none" xmlns="http://www.w3.org/2000/svg">
<g id="Wapal_logo_white">
<path id="Vector" d="M15.9527 15.1661L13.9655 13.1789L11.9783 15.1661C11.4263 15.7181 11.4263 16.6151 11.9783 17.1671L13.9655 19.1543L15.9527 17.1671C16.5047 16.6151 16.5047 15.7181 15.9527 15.1661ZM13.9655 1.06259C6.81714 1.06259 1.02118 6.85855 1.02118 14.0069C1.02118 21.1552 6.81714 26.9512 13.9655 26.9512C21.1138 26.9512 26.9098 21.1552 26.9098 14.0069C26.9236 6.87235 21.1138 1.06259 13.9655 1.06259ZM23.4736 9.93593L19.2232 18.4367L20.617 21.0586C20.8102 21.4174 20.7412 21.859 20.4514 22.1488L19.3612 23.239C19.0024 23.5978 18.409 23.5978 18.0503 23.239L13.9655 19.1543L9.88071 23.239C9.52192 23.5978 8.92852 23.5978 8.56972 23.239L7.47953 22.1488C7.18973 21.859 7.12073 21.4174 7.31393 21.0586L8.70772 18.4367L4.45735 9.93593C4.27795 9.57713 4.34695 9.14933 4.63675 8.87334L6.48594 7.01035C6.84474 6.65155 7.43813 6.65155 7.79693 7.01035L13.9655 13.1789L20.134 7.01035C20.4928 6.65155 21.0862 6.65155 21.445 7.01035L23.2942 8.85953C23.584 9.14933 23.653 9.57713 23.4736 9.93593ZM15.9527 15.1661L13.9655 13.1789L11.9783 15.1661C11.4263 15.7181 11.4263 16.6151 11.9783 17.1671L13.9655 19.1543L15.9527 17.1671C16.5047 16.6151 16.5047 15.7181 15.9527 15.1661Z" fill="black"/>
<g id="Group">
<path id="Vector_2" d="M30.7999 7.69995H34.8847L37.1341 16.2283H37.3273L40.0183 7.69995H43.7718L46.4904 16.2283H46.6836L48.9054 7.69995H52.935L48.5742 21.3205H44.655L41.9364 12.7369H41.7432L39.0247 21.3205H35.1607L30.7999 7.69995Z" fill="black"/>
<path id="Vector_3" d="M63.6313 19.5269H63.4105C62.9827 20.0513 62.4721 20.4929 61.865 20.8655C61.2578 21.2381 60.485 21.4175 59.5466 21.4175C58.8428 21.4175 58.1804 21.3071 57.5594 21.0725C56.9384 20.8379 56.4002 20.5205 55.931 20.1203C55.4618 19.7063 55.103 19.2233 54.8408 18.6437C54.5786 18.0641 54.4544 17.4431 54.4544 16.7531C54.4544 16.0493 54.5924 15.4145 54.8684 14.8487C55.1444 14.2829 55.5308 13.7999 56.0414 13.3859C56.5382 12.9719 57.1316 12.6683 57.8078 12.4613C58.484 12.2543 59.2154 12.1439 60.0158 12.1439C60.899 12.1439 61.6304 12.2129 62.21 12.3509C62.7895 12.4889 63.2587 12.6269 63.6313 12.7787V12.3647C63.6313 11.6471 63.3415 11.0399 62.7757 10.5707C62.1962 10.1015 61.4924 9.86694 60.6368 9.86694C59.381 9.86694 58.3184 10.3913 57.4352 11.4539L54.7994 9.64614C56.2484 7.81076 58.2218 6.89996 60.7196 6.89996C62.8309 6.89996 64.4455 7.39676 65.5495 8.39035C66.6673 9.38395 67.2193 10.8467 67.2193 12.7925V20.9621H63.6313V19.5269ZM63.6313 15.4421C63.2035 15.2351 62.7619 15.0833 62.3066 14.9591C61.8512 14.8349 61.3544 14.7797 60.8162 14.7797C59.9468 14.7797 59.2706 14.9729 58.8014 15.3455C58.3322 15.7319 58.0976 16.1873 58.0976 16.7531C58.0976 17.3189 58.3184 17.7467 58.7738 18.0917C59.2292 18.4229 59.7536 18.5885 60.347 18.5885C60.83 18.5885 61.2716 18.5057 61.6856 18.3263C62.0996 18.1469 62.4446 17.9123 62.7343 17.6363C63.0241 17.3465 63.2449 17.0153 63.3967 16.6427C63.5623 16.2425 63.6313 15.8423 63.6313 15.4421Z" fill="black"/>
<path id="Vector_4" d="M69.9931 7.35535H73.4155V8.99754H73.6363C73.9675 8.41795 74.4919 7.93495 75.1957 7.52095C75.8995 7.12076 76.7689 6.91376 77.8038 6.91376C78.6732 6.91376 79.5012 7.09316 80.2878 7.45195C81.0744 7.81075 81.7644 8.30755 82.3716 8.95614C82.9788 9.59094 83.448 10.3637 83.8068 11.2469C84.1518 12.1301 84.3312 13.1099 84.3312 14.1587C84.3312 15.2075 84.1518 16.1873 83.8068 17.0705C83.448 17.9537 82.9788 18.7265 82.3716 19.3613C81.7644 19.9961 81.0744 20.5067 80.2878 20.8655C79.5012 21.2243 78.6732 21.4037 77.8038 21.4037C76.7689 21.4037 75.8995 21.1967 75.1957 20.7965C74.4919 20.3963 73.9675 19.8995 73.6363 19.3199H73.4155L73.6363 21.2657V26.965H69.9931V7.35535ZM77.0587 18.0503C77.5417 18.0503 77.997 17.9537 78.4386 17.7743C78.8802 17.5949 79.2528 17.3327 79.5978 17.0015C79.929 16.6703 80.205 16.2563 80.3982 15.7733C80.6052 15.2903 80.7018 14.7521 80.7018 14.1587C80.7018 13.5653 80.6052 13.0271 80.3982 12.5441C80.1912 12.0611 79.929 11.6609 79.5978 11.3159C79.2666 10.9847 78.8802 10.7225 78.4386 10.5431C77.997 10.3637 77.5417 10.2671 77.0587 10.2671C76.5757 10.2671 76.1203 10.3499 75.6787 10.5293C75.2371 10.7087 74.8645 10.9571 74.5195 11.2883C74.1883 11.6195 73.9123 12.0335 73.7191 12.5165C73.5121 12.9995 73.4155 13.5515 73.4155 14.1587C73.4155 14.7659 73.5121 15.3179 73.7191 15.8009C73.9261 16.2839 74.1883 16.6841 74.5195 17.0291C74.8507 17.3603 75.2371 17.6225 75.6787 17.7881C76.1203 17.9537 76.5757 18.0503 77.0587 18.0503Z" fill="black"/>
<path id="Vector_5" d="M95.0676 19.5269H94.8468C94.419 20.0513 93.9084 20.4929 93.3012 20.8655C92.694 21.2381 91.9212 21.4175 90.9828 21.4175C90.279 21.4175 89.6166 21.3071 88.9956 21.0725C88.3746 20.8379 87.8364 20.5205 87.3672 20.1203C86.898 19.7063 86.5392 19.2233 86.277 18.6437C86.0148 18.0641 85.8906 17.4431 85.8906 16.7531C85.8906 16.0493 86.0286 15.4145 86.3046 14.8487C86.5806 14.2829 86.967 13.7999 87.4776 13.3859C87.9744 12.9719 88.5678 12.6683 89.244 12.4613C89.9202 12.2543 90.6516 12.1439 91.452 12.1439C92.3352 12.1439 93.0666 12.2129 93.6462 12.3509C94.2258 12.4889 94.695 12.6269 95.0676 12.7787V12.3647C95.0676 11.6471 94.7778 11.0399 94.212 10.5707C93.6324 10.1015 92.9286 9.86694 92.073 9.86694C90.8172 9.86694 89.7546 10.3913 88.8714 11.4539L86.2356 9.64614C87.6708 7.81076 89.6442 6.89996 92.142 6.89996C94.2534 6.89996 95.868 7.39676 96.9719 8.39035C98.0897 9.38395 98.6417 10.8467 98.6417 12.7925V20.9621H95.0538V19.5269H95.0676ZM95.0676 15.4421C94.6398 15.2351 94.1982 15.0833 93.7428 14.9591C93.2874 14.8349 92.7906 14.7797 92.2524 14.7797C91.383 14.7797 90.7068 14.9729 90.2376 15.3455C89.7684 15.7319 89.5338 16.1873 89.5338 16.7531C89.5338 17.3189 89.7546 17.7467 90.21 18.0917C90.6654 18.4229 91.1898 18.5885 91.7832 18.5885C92.2662 18.5885 92.7078 18.5057 93.1218 18.3263C93.5358 18.1469 93.8808 17.9123 94.1706 17.6363C94.4604 17.3465 94.6812 17.0153 94.833 16.6427C94.9848 16.2425 95.0676 15.8423 95.0676 15.4421Z" fill="black"/>
<path id="Vector_6" d="M101.54 20.962V1.06259H105.183V20.962H101.54Z" fill="black"/>
</g>
</g>
</svg>
