<svg width="107" height="28" viewBox="0 0 107 28" fill="none" xmlns="http://www.w3.org/2000/svg">
<g id="Wapal_logo_white">
<path id="Vector" d="M15.9527 15.1661L13.9655 13.1789L11.9784 15.1661C11.4264 15.7181 11.4264 16.6151 11.9784 17.1671L13.9655 19.1543L15.9527 17.1671C16.5047 16.6151 16.5047 15.7181 15.9527 15.1661ZM13.9655 1.06259C6.8172 1.06259 1.02124 6.85855 1.02124 14.0069C1.02124 21.1552 6.8172 26.9512 13.9655 26.9512C21.1139 26.9512 26.9098 21.1552 26.9098 14.0069C26.9236 6.87235 21.1139 1.06259 13.9655 1.06259ZM23.4737 9.93593L19.2233 18.4367L20.6171 21.0586C20.8103 21.4174 20.7413 21.859 20.4515 22.1488L19.3613 23.239C19.0025 23.5978 18.4091 23.5978 18.0503 23.239L13.9655 19.1543L9.88077 23.239C9.52198 23.5978 8.92858 23.5978 8.56978 23.239L7.47959 22.1488C7.18979 21.859 7.12079 21.4174 7.31399 21.0586L8.70778 18.4367L4.45741 9.93593C4.27802 9.57713 4.34702 9.14933 4.63681 8.87334L6.486 7.01035C6.8448 6.65155 7.43819 6.65155 7.79699 7.01035L13.9655 13.1789L20.1341 7.01035C20.4929 6.65155 21.0863 6.65155 21.4451 7.01035L23.2943 8.85953C23.5841 9.14933 23.6531 9.57713 23.4737 9.93593ZM15.9527 15.1661L13.9655 13.1789L11.9784 15.1661C11.4264 15.7181 11.4264 16.6151 11.9784 17.1671L13.9655 19.1543L15.9527 17.1671C16.5047 16.6151 16.5047 15.7181 15.9527 15.1661Z" fill="white"/>
<g id="Group">
<path id="Vector_2" d="M30.7998 7.69995H34.8846L37.134 16.2283H37.3272L40.0181 7.69995H43.7717L46.4903 16.2283H46.6835L48.9053 7.69995H52.9348L48.5741 21.3205H44.6549L41.9363 12.7369H41.7431L39.0245 21.3205H35.1606L30.7998 7.69995Z" fill="white"/>
<path id="Vector_3" d="M63.6313 19.5269H63.4105C62.9827 20.0513 62.4721 20.4929 61.8649 20.8655C61.2577 21.2381 60.4849 21.4175 59.5465 21.4175C58.8427 21.4175 58.1803 21.3071 57.5593 21.0725C56.9383 20.8379 56.4001 20.5205 55.9309 20.1203C55.4617 19.7063 55.1029 19.2233 54.8407 18.6437C54.5785 18.0641 54.4543 17.4431 54.4543 16.7531C54.4543 16.0493 54.5923 15.4145 54.8683 14.8487C55.1443 14.2829 55.5307 13.7999 56.0413 13.3859C56.5381 12.9719 57.1315 12.6683 57.8077 12.4613C58.4839 12.2543 59.2153 12.1439 60.0157 12.1439C60.8989 12.1439 61.6303 12.2129 62.2099 12.3509C62.7895 12.4889 63.2587 12.6269 63.6313 12.7787V12.3647C63.6313 11.6471 63.3415 11.0399 62.7757 10.5707C62.1961 10.1015 61.4923 9.86694 60.6367 9.86694C59.3809 9.86694 58.3183 10.3913 57.4351 11.4539L54.7993 9.64614C56.2483 7.81076 58.2217 6.89996 60.7195 6.89996C62.8309 6.89996 64.4455 7.39676 65.5495 8.39035C66.6673 9.38395 67.2193 10.8467 67.2193 12.7925V20.9621H63.6313V19.5269ZM63.6313 15.4421C63.2035 15.2351 62.7619 15.0833 62.3065 14.9591C61.8511 14.8349 61.3543 14.7797 60.8161 14.7797C59.9467 14.7797 59.2705 14.9729 58.8013 15.3455C58.3321 15.7319 58.0975 16.1873 58.0975 16.7531C58.0975 17.3189 58.3183 17.7467 58.7737 18.0917C59.2291 18.4229 59.7535 18.5885 60.3469 18.5885C60.8299 18.5885 61.2715 18.5057 61.6855 18.3263C62.0995 18.1469 62.4445 17.9123 62.7343 17.6363C63.0241 17.3465 63.2449 17.0153 63.3967 16.6427C63.5623 16.2425 63.6313 15.8423 63.6313 15.4421Z" fill="white"/>
<path id="Vector_4" d="M69.9929 7.35535H73.4153V8.99754H73.6361C73.9673 8.41795 74.4917 7.93495 75.1955 7.52095C75.8993 7.12076 76.7687 6.91376 77.8037 6.91376C78.6731 6.91376 79.501 7.09316 80.2876 7.45195C81.0742 7.81075 81.7642 8.30755 82.3714 8.95614C82.9786 9.59094 83.4478 10.3637 83.8066 11.2469C84.1516 12.1301 84.331 13.1099 84.331 14.1587C84.331 15.2075 84.1516 16.1873 83.8066 17.0705C83.4478 17.9537 82.9786 18.7265 82.3714 19.3613C81.7642 19.9961 81.0742 20.5067 80.2876 20.8655C79.501 21.2243 78.6731 21.4037 77.8037 21.4037C76.7687 21.4037 75.8993 21.1967 75.1955 20.7965C74.4917 20.3963 73.9673 19.8995 73.6361 19.3199H73.4153L73.6361 21.2657V26.965H69.9929V7.35535ZM77.0585 18.0503C77.5415 18.0503 77.9969 17.9537 78.4385 17.7743C78.8801 17.5949 79.2527 17.3327 79.5976 17.0015C79.9288 16.6703 80.2048 16.2563 80.398 15.7733C80.605 15.2903 80.7016 14.7521 80.7016 14.1587C80.7016 13.5653 80.605 13.0271 80.398 12.5441C80.191 12.0611 79.9288 11.6609 79.5976 11.3159C79.2665 10.9847 78.8801 10.7225 78.4385 10.5431C77.9969 10.3637 77.5415 10.2671 77.0585 10.2671C76.5755 10.2671 76.1201 10.3499 75.6785 10.5293C75.2369 10.7087 74.8643 10.9571 74.5193 11.2883C74.1881 11.6195 73.9121 12.0335 73.7189 12.5165C73.5119 12.9995 73.4153 13.5515 73.4153 14.1587C73.4153 14.7659 73.5119 15.3179 73.7189 15.8009C73.9259 16.2839 74.1881 16.6841 74.5193 17.0291C74.8505 17.3603 75.2369 17.6225 75.6785 17.7881C76.1201 17.9537 76.5755 18.0503 77.0585 18.0503Z" fill="white"/>
<path id="Vector_5" d="M95.0673 19.5269H94.8465C94.4187 20.0513 93.9081 20.4929 93.3009 20.8655C92.6937 21.2381 91.9209 21.4175 90.9825 21.4175C90.2787 21.4175 89.6164 21.3071 88.9954 21.0725C88.3744 20.8379 87.8362 20.5205 87.367 20.1203C86.8978 19.7063 86.539 19.2233 86.2768 18.6437C86.0146 18.0641 85.8904 17.4431 85.8904 16.7531C85.8904 16.0493 86.0284 15.4145 86.3044 14.8487C86.5804 14.2829 86.9668 13.7999 87.4774 13.3859C87.9742 12.9719 88.5676 12.6683 89.2438 12.4613C89.92 12.2543 90.6513 12.1439 91.4517 12.1439C92.3349 12.1439 93.0663 12.2129 93.6459 12.3509C94.2255 12.4889 94.6947 12.6269 95.0673 12.7787V12.3647C95.0673 11.6471 94.7775 11.0399 94.2117 10.5707C93.6321 10.1015 92.9283 9.86694 92.0727 9.86694C90.8169 9.86694 89.7544 10.3913 88.8712 11.4539L86.2354 9.64614C87.6706 7.81076 89.644 6.89996 92.1417 6.89996C94.2531 6.89996 95.8677 7.39676 96.9717 8.39035C98.0895 9.38395 98.6415 10.8467 98.6415 12.7925V20.9621H95.0535V19.5269H95.0673ZM95.0673 15.4421C94.6395 15.2351 94.1979 15.0833 93.7425 14.9591C93.2871 14.8349 92.7903 14.7797 92.2521 14.7797C91.3827 14.7797 90.7065 14.9729 90.2374 15.3455C89.7682 15.7319 89.5336 16.1873 89.5336 16.7531C89.5336 17.3189 89.7544 17.7467 90.2097 18.0917C90.6651 18.4229 91.1895 18.5885 91.7829 18.5885C92.2659 18.5885 92.7075 18.5057 93.1215 18.3263C93.5355 18.1469 93.8805 17.9123 94.1703 17.6363C94.4601 17.3465 94.6809 17.0153 94.8327 16.6427C94.9845 16.2425 95.0673 15.8423 95.0673 15.4421Z" fill="white"/>
<path id="Vector_6" d="M101.54 20.962V1.06259H105.183V20.962H101.54Z" fill="white"/>
</g>
</g>
</svg>
